# xmcd CD database file
#
# Track frame offsets:
#	150
#	13432
#	30313
#	42520
#	54250
#	67911
#	88422
#	115010
#	131026
#	144553
#	166651
#
# Disc length: 2631 seconds
#
# Revision: 0
# Processed by: cddbd v1.5.1PL0 Copyright (c) Steve Scherf et al.
# Submitted via: CDex 1.50
#
DISCID=910a450b
DTITLE=Re:SPEC - 東方音唄祭
DYEAR=2005
DGENRE=Game
TTITLE0=otokaz/妹様は彼女なのだっ！
TTITLE1=oto feat. きせの/月と時計の使者　まじかる☆さくや
TTITLE2=Necro Panda/Please return my Books!!
TTITLE3=ねこみりん/U.N.オーエンは彼女なのか？
TTITLE4=otokaz/思い出マスタースパーク
TTITLE5=ねこみりん/Nightmare Cross of Magician...
TTITLE6=otokaz/幽霊楽団 -Flow Stage Style-
TTITLE7=otokaz/月と時計の使者　まじかる☆さくや -off Vocal-
TTITLE8=otokaz/紅魔館の午後のひととき
TTITLE9=Necro Panda/Disabled the “不老”
TTITLE10=Datatrack
EXTD=YEAR: 2005
EXTT0=
EXTT1=
EXTT2=
EXTT3=
EXTT4=
EXTT5=
EXTT6=
EXTT7=
EXTT8=
EXTT9=
EXTT10=
PLAYORDER=
